<svg width="20" height="20" viewBox="0 0 20 20" fill="none" xmlns="http://www.w3.org/2000/svg">
<path d="M2 8.22222H18M7.33333 3.77778H4.84444C3.8488 3.77778 3.35097 3.77778 2.97068 3.97154C2.63617 4.14199 2.36421 4.41395 2.19377 4.74846C2 5.12875 2 5.62657 2 6.62222V15.1556C2 16.1512 2 16.649 2.19377 17.0293C2.36421 17.3638 2.63617 17.6358 2.97068 17.8062C3.35097 18 3.8488 18 4.84444 18H15.1556C16.1512 18 16.649 18 17.0293 17.8062C17.3638 17.6358 17.6358 17.3638 17.8062 17.0293C18 16.649 18 16.1512 18 15.1556V6.62222C18 5.62657 18 5.12875 17.8062 4.74846C17.6358 4.41395 17.3638 4.14199 17.0293 3.97154C16.649 3.77778 16.1512 3.77778 15.1556 3.77778H12.6667M7.33333 3.77778H12.6667M7.33333 3.77778V3.33333C7.33333 2.59695 6.73638 2 6 2C5.26362 2 4.66667 2.59695 4.66667 3.33333V3.77778M12.6667 3.77778V3.33333C12.6667 2.59695 13.2636 2 14 2C14.7364 2 15.3333 2.59695 15.3333 3.33333V3.77778" stroke="#888B94" stroke-width="1.5" stroke-linecap="round"/>
</svg>
