<svg width="150" height="30" viewBox="0 0 150 30" fill="none" xmlns="http://www.w3.org/2000/svg">
<path d="M15.9031 29.9988C24.6862 29.9988 31.8063 23.2833 31.8063 14.9994C31.8063 6.71546 24.6862 0 15.9031 0C7.12008 0 0 6.71546 0 14.9994C0 23.2833 7.12008 29.9988 15.9031 29.9988Z" fill="url(#paint0_linear_10581_225766)"/>
<path d="M15.9031 1.03447C24.0698 1.03447 30.7086 7.29927 30.7086 14.9994C30.7086 22.6995 24.0663 28.9635 15.9031 28.9635C7.73993 28.9635 1.0968 22.6987 1.0968 14.9994C1.0968 7.3001 7.73906 1.03447 15.9031 1.03447ZM15.9031 0C11.6854 0 7.64034 1.58029 4.65792 4.39322C1.6755 7.20616 0 11.0213 0 14.9994C0 23.2818 7.11997 29.998 15.9031 29.998C20.1207 29.998 24.1655 28.4178 27.1477 25.605C30.13 22.7922 31.8054 18.9773 31.8054 14.9994C31.8054 6.71536 24.6854 0 15.9031 0Z" fill="url(#paint1_linear_10581_225766)"/>
<path d="M14.7488 7.04281C14.4915 6.21457 13.5325 5.46915 12.4928 5.46915C11.0553 5.46915 9.9102 6.58811 9.68803 7.93731C9.64403 8.18627 9.64403 8.44038 9.68803 8.68935C9.73194 8.92539 12.2715 19.3521 12.2715 19.3521C12.506 20.5116 13.4517 21.0583 14.4063 21.0583C15.3143 21.0583 16.2996 20.6508 16.7825 19.955C16.9028 19.7819 29.8668 1.94748 29.9283 1.82408C29.9969 1.68671 30.042 1.53994 30.0618 1.38925C30.1601 0.673653 29.6517 0.131985 28.893 0.132813C28.636 0.139583 28.3838 0.200345 28.1549 0.310671C27.926 0.420998 27.726 0.57811 27.5696 0.770557L16.8484 13.0111C16.7961 13.0675 16.7282 13.1091 16.6523 13.1311C16.5763 13.1531 16.4954 13.1547 16.4185 13.1357C16.3417 13.1167 16.272 13.0778 16.2173 13.0235C16.1626 12.9691 16.1251 12.9014 16.109 12.8281L14.7488 7.04281Z" fill="white"/>
<path d="M28.271 5.67134L27.6396 4.99219C23.8267 10.2465 16.8622 19.8384 16.7858 19.946C16.3028 20.6418 15.3175 21.0493 14.4095 21.0493C13.455 21.0493 12.5092 20.4985 12.2748 19.3431C12.2748 19.3431 9.7352 8.91638 9.6913 8.68034C9.64729 8.43137 9.64729 8.17726 9.6913 7.92829C9.74085 7.64604 9.83126 7.37153 9.96001 7.11248L9.95474 7.10585L2.1665 22.5484C4.0707 25.6316 7.07803 27.9736 10.6484 29.1535C14.2187 30.3335 18.1182 30.2742 21.6463 28.9863L28.271 5.67134Z" fill="url(#paint2_linear_10581_225766)"/>
<path d="M27.6853 4.92969C23.9558 10.0764 16.8718 19.8223 16.7831 19.9506C16.3002 20.6463 15.3149 21.0538 14.4069 21.0538C13.4524 21.0538 12.5066 20.5031 12.2721 19.3477C12.2721 19.3477 9.73256 8.92097 9.68865 8.68492C9.64465 8.43596 9.64465 8.18184 9.68865 7.93288C9.73234 7.68365 9.80783 7.44031 9.91345 7.20817L9.89853 7.21645L8.59888 9.78814L11.7962 21.8398C12.0034 22.567 12.8912 22.9994 13.8765 23.0449C15.4326 23.122 16.4372 22.7758 17.1441 21.8663C17.2477 21.733 25.3406 10.7298 28.5959 5.96913C28.309 5.60912 28.0055 5.26264 27.6853 4.92969Z" fill="#009600"/>
<path d="M38.8792 6.64844H42.9457L44.7597 18.4793H44.8111L46.6241 6.64844H50.6916V23.1779H47.9977V10.6624H47.9463L45.8748 23.1779H43.4943L41.4227 10.6624H41.3704V23.1779H38.8792V6.64844Z" fill="black"/>
<path d="M52.167 6.64844H59.6275V9.00792H54.9025V13.3763H58.6574V15.7399H54.9025V20.8168H59.6275V23.1779H52.167V6.64844Z" fill="black"/>
<path d="M61.6545 22.4878C60.9655 21.7671 60.6207 20.7315 60.6201 19.3812V10.6199C60.6201 9.27063 60.9649 8.2348 61.6545 7.51243C62.344 6.79005 63.3456 6.42914 64.6591 6.42969C65.972 6.42969 66.9735 6.7906 67.6637 7.51243C68.3538 8.23425 68.6986 9.27008 68.6981 10.6199V12.0487H66.137V10.4535C66.137 9.3581 65.6692 8.81039 64.7336 8.81039C63.798 8.81039 63.3305 9.3581 63.331 10.4535V19.5724C63.331 20.6529 63.7985 21.1932 64.7336 21.1932C65.6686 21.1932 66.1364 20.6537 66.137 19.5749V16.3093H64.7867V13.9294H68.7023V19.3812C68.7023 20.7304 68.3575 21.766 67.668 22.4878C66.9784 23.2097 65.9769 23.5708 64.6634 23.5714C63.347 23.5714 62.344 23.2102 61.6545 22.4878Z" fill="black"/>
<path d="M72.6121 6.64844H76.298L79.1179 23.1779H76.3969L75.9015 19.8939V19.9415H72.8099L72.3154 23.1763H69.7922L72.6121 6.64844ZM75.5799 17.7001L74.3716 9.52938H74.3226L73.135 17.7001H75.5799Z" fill="black"/>
<path d="M80.645 6.64844H84.1273L86.8263 16.5425H86.8763V6.64844H89.3489V23.1779H86.4982L83.1651 11.109H83.1142V23.1779H80.645V6.64844Z" fill="black"/>
<path d="M91.1274 6.64844H98.5853V9.00792H93.8603V13.3763H97.6152V15.7399H93.8603V20.8168H98.5853V23.1779H91.1248L91.1274 6.64844Z" fill="black"/>
<path d="M102.534 9.00804H99.5894V6.64844H108.293V9.00804H105.349V23.1779H102.534V9.00804Z" fill="black"/>
<path d="M114.891 23C113.626 23 112.657 22.6667 111.985 22C111.328 21.3333 111 20.3926 111 19.1778V10.8222C111 9.60741 111.328 8.66667 111.985 8C112.657 7.33333 113.626 7 114.891 7C116.156 7 117.116 7.33333 117.773 8C118.445 8.66667 118.781 9.60741 118.781 10.8222V12.4667H116.284V10.6667C116.284 9.7037 115.843 9.22222 114.963 9.22222C114.082 9.22222 113.642 9.7037 113.642 10.6667V19.3556C113.642 20.3037 114.082 20.7778 114.963 20.7778C115.843 20.7778 116.284 20.3037 116.284 19.3556V16.9778H118.781V19.1778C118.781 20.3926 118.445 21.3333 117.773 22C117.116 22.6667 116.156 23 114.891 23Z" fill="url(#paint3_linear_10581_225766)"/>
<path d="M120.362 7.22222H124.277C125.638 7.22222 126.63 7.51852 127.255 8.11111C127.879 8.68889 128.191 9.58518 128.191 10.8V11.7556C128.191 13.3704 127.615 14.3926 126.462 14.8222V14.8667C127.103 15.0444 127.551 15.4074 127.807 15.9556C128.079 16.5037 128.215 17.237 128.215 18.1556V20.8889C128.215 21.3333 128.231 21.6963 128.263 21.9778C128.295 22.2444 128.376 22.5111 128.504 22.7778H125.814C125.718 22.5259 125.654 22.2889 125.622 22.0667C125.59 21.8444 125.574 21.4444 125.574 20.8667V18.0222C125.574 17.3111 125.446 16.8148 125.189 16.5333C124.949 16.2519 124.525 16.1111 123.916 16.1111H123.004V22.7778H120.362V7.22222ZM123.964 13.8889C124.493 13.8889 124.885 13.763 125.141 13.5111C125.413 13.2593 125.55 12.837 125.55 12.2444V11.0444C125.55 10.4815 125.438 10.0741 125.213 9.82222C125.005 9.57037 124.669 9.44444 124.205 9.44444H123.004V13.8889H123.964Z" fill="url(#paint4_linear_10581_225766)"/>
<path d="M130.048 7.22222H133.819L135.5 18.3556H135.548L137.229 7.22222H141V22.7778H138.502V11H138.454L136.533 22.7778H134.323L132.402 11H132.354V22.7778H130.048V7.22222Z" fill="url(#paint5_linear_10581_225766)"/>
<defs>
<linearGradient id="paint0_linear_10581_225766" x1="15.9031" y1="29.998" x2="15.9031" y2="0" gradientUnits="userSpaceOnUse">
<stop offset="0.39" stop-color="#00E600"/>
<stop offset="1" stop-color="#009600"/>
</linearGradient>
<linearGradient id="paint1_linear_10581_225766" x1="1.85902" y1="22.0419" x2="29.1993" y2="6.62922" gradientUnits="userSpaceOnUse">
<stop offset="0.51" stop-color="#00E500"/>
<stop offset="1" stop-color="#009600"/>
</linearGradient>
<linearGradient id="paint2_linear_10581_225766" x1="15.2192" y1="29.9959" x2="15.2192" y2="4.99219" gradientUnits="userSpaceOnUse">
<stop offset="0.26" stop-color="#00E600"/>
<stop offset="0.72" stop-color="#009600"/>
</linearGradient>
<linearGradient id="paint3_linear_10581_225766" x1="111" y1="7" x2="142.184" y2="9.7018" gradientUnits="userSpaceOnUse">
<stop stop-color="#00C82C"/>
<stop offset="1" stop-color="#5AC371"/>
</linearGradient>
<linearGradient id="paint4_linear_10581_225766" x1="111" y1="7" x2="142.184" y2="9.7018" gradientUnits="userSpaceOnUse">
<stop stop-color="#00C82C"/>
<stop offset="1" stop-color="#5AC371"/>
</linearGradient>
<linearGradient id="paint5_linear_10581_225766" x1="111" y1="7" x2="142.184" y2="9.7018" gradientUnits="userSpaceOnUse">
<stop stop-color="#00C82C"/>
<stop offset="1" stop-color="#5AC371"/>
</linearGradient>
</defs>
</svg>
