<svg width="33" height="32" viewBox="0 0 33 32" fill="none" xmlns="http://www.w3.org/2000/svg">
<path d="M13.2273 4H6.68182C6.10316 4 5.54821 4.22987 5.13904 4.63904C4.72987 5.04821 4.5 5.60316 4.5 6.18182V12.7273C4.5 13.3059 4.72987 13.8609 5.13904 14.2701C5.54821 14.6792 6.10316 14.9091 6.68182 14.9091H13.2273C13.8059 14.9091 14.3609 14.6792 14.7701 14.2701C15.1792 13.8609 15.4091 13.3059 15.4091 12.7273V6.18182C15.4091 5.60316 15.1792 5.04821 14.7701 4.63904C14.3609 4.22987 13.8059 4 13.2273 4ZM13.2273 12.7273H6.68182V6.18182H13.2273V12.7273ZM13.2273 17.0909H6.68182C6.10316 17.0909 5.54821 17.3208 5.13904 17.7299C4.72987 18.1391 4.5 18.6941 4.5 19.2727V25.8182C4.5 26.3968 4.72987 26.9518 5.13904 27.361C5.54821 27.7701 6.10316 28 6.68182 28H13.2273C13.8059 28 14.3609 27.7701 14.7701 27.361C15.1792 26.9518 15.4091 26.3968 15.4091 25.8182V19.2727C15.4091 18.6941 15.1792 18.1391 14.7701 17.7299C14.3609 17.3208 13.8059 17.0909 13.2273 17.0909ZM13.2273 25.8182H6.68182V19.2727H13.2273V25.8182ZM26.3182 4H19.7727C19.1941 4 18.6391 4.22987 18.2299 4.63904C17.8208 5.04821 17.5909 5.60316 17.5909 6.18182V12.7273C17.5909 13.3059 17.8208 13.8609 18.2299 14.2701C18.6391 14.6792 19.1941 14.9091 19.7727 14.9091H26.3182C26.8968 14.9091 27.4518 14.6792 27.861 14.2701C28.2701 13.8609 28.5 13.3059 28.5 12.7273V6.18182C28.5 5.60316 28.2701 5.04821 27.861 4.63904C27.4518 4.22987 26.8968 4 26.3182 4ZM26.3182 12.7273H19.7727V6.18182H26.3182V12.7273ZM17.5909 22.5455V18.1818C17.5909 17.8925 17.7058 17.615 17.9104 17.4104C18.115 17.2058 18.3925 17.0909 18.6818 17.0909C18.9711 17.0909 19.2486 17.2058 19.4532 17.4104C19.6578 17.615 19.7727 17.8925 19.7727 18.1818V22.5455C19.7727 22.8348 19.6578 23.1123 19.4532 23.3168C19.2486 23.5214 18.9711 23.6364 18.6818 23.6364C18.3925 23.6364 18.115 23.5214 17.9104 23.3168C17.7058 23.1123 17.5909 22.8348 17.5909 22.5455ZM28.5 20.3636C28.5 20.653 28.3851 20.9304 28.1805 21.135C27.9759 21.3396 27.6984 21.4545 27.4091 21.4545H24.1364V26.9091C24.1364 27.1984 24.0214 27.4759 23.8168 27.6805C23.6123 27.8851 23.3348 28 23.0455 28H18.6818C18.3925 28 18.115 27.8851 17.9104 27.6805C17.7058 27.4759 17.5909 27.1984 17.5909 26.9091C17.5909 26.6198 17.7058 26.3423 17.9104 26.1377C18.115 25.9331 18.3925 25.8182 18.6818 25.8182H21.9545V18.1818C21.9545 17.8925 22.0695 17.615 22.2741 17.4104C22.4787 17.2058 22.7561 17.0909 23.0455 17.0909C23.3348 17.0909 23.6123 17.2058 23.8168 17.4104C24.0214 17.615 24.1364 17.8925 24.1364 18.1818V19.2727H27.4091C27.6984 19.2727 27.9759 19.3877 28.1805 19.5922C28.3851 19.7968 28.5 20.0743 28.5 20.3636ZM28.5 24.7273V26.9091C28.5 27.1984 28.3851 27.4759 28.1805 27.6805C27.9759 27.8851 27.6984 28 27.4091 28C27.1198 28 26.8423 27.8851 26.6377 27.6805C26.4331 27.4759 26.3182 27.1984 26.3182 26.9091V24.7273C26.3182 24.4379 26.4331 24.1605 26.6377 23.9559C26.8423 23.7513 27.1198 23.6364 27.4091 23.6364C27.6984 23.6364 27.9759 23.7513 28.1805 23.9559C28.3851 24.1605 28.5 24.4379 28.5 24.7273Z" fill="#B7B7B7"/>
</svg>
